<svg width="25" height="24" viewBox="0 0 25 24" fill="none" xmlns="http://www.w3.org/2000/svg">
<g clip-path="url(#clip0_4635_4106)">
<path d="M13.4499 4.14V4.08C13.4499 3.8 13.5399 3.55 13.7199 3.33C13.8999 3.11 14.1299 3 14.4099 3C14.6899 3 14.9399 3.09 15.1599 3.27C15.3799 3.45 15.4999 3.69 15.5199 3.99C15.5399 4.29 15.4499 4.54 15.2499 4.74C15.0499 4.94 14.8099 5.04 14.5299 5.04L14.3499 5.1L14.4099 5.19L14.3499 5.52L14.2299 6.48C14.2699 6.52 14.2899 6.56 14.2899 6.6L14.1699 7.2C14.1299 7.28 14.0899 7.34 14.0499 7.38L13.9899 7.62C13.9099 7.94 13.8399 8.2 13.7799 8.4C13.7199 8.6 13.6699 8.76 13.6299 8.88V9C13.5899 9.2 13.5599 9.36 13.5399 9.48C13.5199 9.6 13.4499 9.8 13.3299 10.08C13.2499 10.24 13.2499 10.5 13.3299 10.86L13.3899 10.92C13.3899 11.04 13.4399 11.18 13.5399 11.34C13.6399 11.5 13.6899 11.64 13.6899 11.76C13.7299 12.56 13.6699 13.24 13.5099 13.8L13.6299 14.16C14.1099 14.4 14.2499 14.66 14.0499 14.94L14.3499 15.06C14.8299 15.3 15.1699 15.51 15.3699 15.69C15.5699 15.87 15.7699 16.06 15.9699 16.26C16.1299 16.3 16.2499 16.36 16.3299 16.44L16.5099 16.5C17.3499 17.06 18.1899 17.74 19.0299 18.54L19.2699 18.72V18.78L19.2099 18.9L19.3899 19.02H19.4499C19.5699 19.1 19.6499 19.14 19.6899 19.14H19.7499C19.7899 19.14 19.8299 19.12 19.8699 19.08L19.9899 19.02C20.0699 18.94 20.1499 18.88 20.2299 18.84H20.4699C20.5099 18.84 20.5099 18.86 20.4699 18.9L20.2299 19.02L19.9299 19.38H20.3499L20.7699 19.44C20.8899 19.4 20.9899 19.36 21.0699 19.32L21.3699 19.14C21.4899 19.1 21.6099 19.14 21.7299 19.26H21.7899C21.8299 19.3 21.8099 19.36 21.7299 19.44L21.0099 20.1C20.8099 20.26 20.6299 20.36 20.4699 20.4L19.6899 20.94C19.6499 20.98 19.6099 20.98 19.5699 20.94L19.3899 20.7L19.2699 20.46L19.1199 20.25L18.9399 20.01L18.7899 19.83L18.6699 19.68L18.4299 19.5C18.3499 19.5 18.2699 19.48 18.1899 19.44L17.4099 18.84C17.2899 18.84 17.1499 18.78 16.9899 18.66C16.3899 18.14 15.9899 17.82 15.7899 17.7L15.4299 17.46L14.7099 17.34C14.4699 17.3 14.1499 17.18 13.7499 16.98L13.2699 16.74C12.9499 16.58 12.7299 16.5 12.6099 16.5L12.3699 16.38C12.2099 16.34 12.0899 16.3 12.0099 16.26L11.8899 16.14C11.8099 16.14 11.7299 16.16 11.6499 16.2L10.4499 16.8L8.94986 17.46C8.54986 17.78 8.16986 18.04 7.80986 18.24L7.14986 18.54L6.12986 19.26C6.04986 19.34 5.96986 19.34 5.88986 19.26L5.76986 19.38C5.64986 19.42 5.56986 19.44 5.52986 19.44L5.28986 19.56V19.68H5.16986L5.04986 19.86C4.96986 20.02 4.88986 20.11 4.80986 20.13C4.72986 20.15 4.67986 20.18 4.65986 20.22C4.63986 20.26 4.61986 20.29 4.59986 20.31L4.47986 20.43L4.29986 20.55L4.02986 20.52L3.66986 20.58L3.42986 20.64C3.22986 20.68 3.06986 20.65 2.94986 20.55C2.82986 20.45 2.72986 20.3 2.64986 20.1C2.56986 19.98 2.60986 19.88 2.76986 19.8L2.82986 19.74C2.86986 19.7 2.92986 19.68 3.00986 19.68H3.36986L3.84986 19.5L4.08986 19.44C4.08986 19.36 4.10986 19.3 4.14986 19.26C4.18986 19.22 4.24986 19.2 4.32986 19.2V19.14C4.28986 19.06 4.26986 18.98 4.26986 18.9C4.22986 18.82 4.21986 18.76 4.23986 18.72C4.25986 18.68 4.27986 18.66 4.29986 18.66H4.32986L4.38986 18.84C4.42986 19.04 4.48986 19.1 4.56986 19.02L4.62986 18.9C4.66986 18.82 4.72986 18.78 4.80986 18.78L4.92986 18.9L5.04986 18.78L4.98986 18.72C4.98986 18.68 5.00986 18.66 5.04986 18.66L5.28986 18.42C5.48986 18.18 5.72986 17.96 6.00986 17.76C6.56986 17.32 7.16986 16.98 7.80986 16.74C8.00986 16.54 8.22986 16.44 8.46986 16.44C8.62986 16.16 8.86986 15.86 9.18986 15.54C9.46986 15.34 9.66986 15.2 9.78986 15.12C9.86986 14.96 9.96986 14.88 10.0899 14.88H10.1499L10.2699 14.76C10.3499 14.72 10.4099 14.68 10.4499 14.64V14.34C10.4499 14.14 10.4699 13.98 10.5099 13.86C10.5499 13.74 10.6499 13.68 10.8099 13.68L11.0499 13.44C10.9699 13.28 10.9299 13.1 10.9299 12.9H10.8699C10.7899 12.78 10.7499 12.66 10.7499 12.54C10.6299 12.34 10.5499 12.18 10.5099 12.06H10.3299C10.2899 12.18 10.1899 12.26 10.0299 12.3L9.96986 12.42C9.80986 12.7 9.66986 12.91 9.54986 13.05C9.42986 13.19 9.20986 13.36 8.88986 13.56C8.68986 13.76 8.54986 13.98 8.46986 14.22C8.42986 14.34 8.42986 14.46 8.46986 14.58L8.40986 14.7H8.46986C8.46986 14.78 8.48986 14.82 8.52986 14.82H8.58986C8.66986 14.86 8.70986 14.91 8.70986 14.97C8.70986 15.03 8.64986 15.05 8.52986 15.03C8.40986 15.01 8.31986 14.97 8.25986 14.91C8.19986 14.85 8.14986 14.82 8.10986 14.82L7.92986 15C7.84986 15.12 7.76986 15.17 7.68986 15.15C7.60986 15.13 7.58986 15.1 7.62986 15.06L7.68986 15C7.72986 14.92 7.72986 14.88 7.68986 14.88L7.20986 15C7.16986 15.04 7.11986 15.04 7.05986 15C6.99986 14.96 7.00986 14.92 7.08986 14.88L7.38986 14.76C7.38986 14.72 7.36986 14.7 7.32986 14.7C7.16986 14.78 7.00986 14.8 6.84986 14.76L6.54986 14.7L6.48986 14.64C6.48986 14.6 6.50986 14.58 6.54986 14.58C6.70986 14.62 6.90986 14.6 7.14986 14.52L7.56986 14.34L8.04986 13.8L8.10986 13.68C8.26986 13.36 8.43986 13.07 8.61986 12.81C8.79986 12.55 8.98986 12.34 9.18986 12.18L9.24986 11.94C9.32986 11.78 9.40986 11.64 9.48986 11.52C9.56986 11.4 9.66986 11.24 9.78986 11.04L9.96986 10.8C10.1299 10.56 10.3099 10.44 10.5099 10.44L10.6899 10.26C10.7299 10.22 10.7499 10.16 10.7499 10.08L10.8699 9.96L10.8099 9.9C10.5699 9.7 10.4499 9.52 10.4499 9.36C10.4099 9.08 10.4999 8.84 10.7199 8.64C10.9399 8.44 11.1599 8.35 11.3799 8.37C11.5999 8.39 11.7699 8.46 11.8899 8.58L12.0099 8.7C12.0499 8.7 12.0699 8.72 12.0699 8.76L12.3099 8.88V9.06C12.3899 9.14 12.4299 9.2 12.4299 9.24C12.5099 9.12 12.6299 8.98 12.7899 8.82L13.0899 7.86C13.0899 7.7 13.1299 7.54 13.2099 7.38L13.3299 7.2V7.08L13.5099 6.36H13.6299L13.8099 5.64C13.8499 5.52 13.8499 5.38 13.8099 5.22L13.5699 4.62L13.4499 4.14Z" fill="#111111"/>
</g>
<defs>
<clipPath id="clip0_4635_4106">
<rect width="24" height="24" fill="white" transform="translate(0.399902)"/>
</clipPath>
</defs>
</svg>
